<svg width="200" height="80" viewBox="0 0 200 80" fill="none" xmlns="http://www.w3.org/2000/svg">
<path d="M61.1964 19.6833C62.6006 22.7333 62.9902 25.7749 62.3631 28.8083C61.7339 31.8374 60.3818 34.6395 58.3047 37.2166C56.2256 39.7958 53.6735 41.9624 50.6464 43.7166C47.6172 45.4666 44.3756 46.5916 40.9214 47.0916L36.6381 68.4249H26.1964L36.6381 17.3499C35.1381 17.9499 33.6839 18.6791 32.2797 19.5333C30.8797 20.3833 29.6797 21.3333 28.6797 22.3833C27.6235 23.4333 26.8568 24.7479 26.3797 26.3249C25.9068 27.9041 25.7714 29.5458 25.9714 31.2499C26.1714 32.9499 26.6985 34.4999 27.5547 35.8999L17.3381 40.6333C16.7381 36.0291 17.1985 31.9624 18.7214 28.4333C20.2485 24.8999 22.4151 21.9083 25.2214 19.4583C27.5256 17.5041 30.0797 15.9249 32.8797 14.7249C35.6839 13.5208 38.5401 12.7062 41.4464 12.2833C44.3506 11.8562 47.1297 11.8416 49.7797 12.2416C52.4339 12.6416 54.7631 13.4562 56.7631 14.6833C58.7672 15.9124 60.2464 17.5791 61.1964 19.6833ZM41.8214 42.3583C43.5214 41.9083 45.0964 41.0333 46.5464 39.7333C48.0006 38.4333 49.2922 36.8708 50.4214 35.0416C51.5485 33.2145 52.4131 31.2999 53.0131 29.2999C53.6131 27.2958 53.9131 25.3895 53.9131 23.5833C53.8631 21.2333 53.1839 19.4458 51.8797 18.2166C50.5797 16.9895 48.9797 16.2249 47.0797 15.9249L41.8214 42.3583Z" fill="white"/>
<path d="M82.1546 55.1333H85.088C84.0817 57.8333 82.7005 60.1875 80.9463 62.1916C79.1963 64.1916 77.2817 65.7562 75.2046 66.8833C73.1255 68.0124 71.0838 68.6604 69.0796 68.8333C67.0796 69.0104 65.315 68.65 63.788 67.75C62.265 66.8499 61.19 65.325 60.563 63.1749C59.9338 61.0208 59.9713 58.1895 60.6713 54.6833L65.6296 30.8666H75.9963C75.1963 35.0791 74.4567 38.8374 73.7796 42.1416C73.1067 45.4416 72.4817 48.5333 71.9046 51.4166C71.3255 54.2958 70.738 57.2124 70.138 60.1666C69.788 61.9666 69.888 63.1916 70.438 63.8416C70.988 64.4916 71.8005 64.6916 72.8796 64.4416C73.9567 64.1916 75.1067 63.6062 76.3296 62.6833C77.5567 61.7562 78.7088 60.6291 79.788 59.2999C80.865 57.9729 81.6546 56.5833 82.1546 55.1333ZM72.238 26.6666C70.538 26.6666 69.138 26.1145 68.038 25.0083C66.9817 23.8583 66.4546 22.4583 66.4546 20.8083C66.5546 19.1541 67.1317 17.7499 68.188 16.5999C69.438 15.4499 70.863 14.8749 72.463 14.8749C74.0671 14.8749 75.4463 15.4499 76.5963 16.5999C77.7963 17.7999 78.3963 19.2041 78.3963 20.8083C78.3963 22.4583 77.7713 23.8583 76.5213 25.0083C75.3713 26.1145 73.9421 26.6666 72.238 26.6666Z" fill="white"/>
<path d="M88.1679 30.8666H113.701L95.5263 61.8166C98.4304 61.1166 101.46 60.9062 104.61 61.1833C107.764 61.4562 110.595 62.2166 113.101 63.4666L107.018 68.3499C102.912 67.45 98.6679 66.9895 94.2846 66.9666C89.9054 66.9395 85.7888 67.325 81.9346 68.125L80.4263 68.4249L99.9596 34.9249H86.5846L88.1679 30.8666Z" fill="#FFB300"/>
<path d="M121.667 30.8666H147.2L129.025 61.8166C131.929 61.1166 134.959 60.9062 138.109 61.1833C141.263 61.4562 144.094 62.2166 146.6 63.4666L140.517 68.3499C136.411 67.45 132.167 66.9895 127.784 66.9666C123.404 66.9395 119.288 67.325 115.434 68.125L113.925 68.4249L133.459 34.9249H120.084L121.667 30.8666Z" fill="#FFB300"/>
<path d="M191.216 55.5833H194.141C193.091 58.3333 191.626 60.7124 189.749 62.7166C187.87 64.7229 185.843 66.2499 183.666 67.2999C181.487 68.3499 179.395 68.8749 177.391 68.8749C175.391 68.8749 173.701 68.2749 172.324 67.0749C170.945 65.8708 170.158 63.9666 169.958 61.3666C168.358 63.7166 166.479 65.5208 164.324 66.7749C162.174 68.0249 159.995 68.7249 157.791 68.8749C155.591 69.0249 153.562 68.6249 151.708 67.6749C149.858 66.7249 148.418 65.2374 147.391 63.2083C146.362 61.1812 145.974 58.6145 146.224 55.5083C146.474 52.5041 147.049 49.5624 147.949 46.6833C148.854 43.7999 150.133 41.1833 151.783 38.8333C153.433 36.4791 155.485 34.5895 157.941 33.1666C160.395 31.7395 163.301 30.9729 166.658 30.8666H185.658L185.058 33.7249C184.258 37.5312 183.543 40.9124 182.916 43.8666C182.287 46.8229 181.699 49.6145 181.149 52.2416C180.599 54.8708 180.024 57.6374 179.424 60.5416C179.074 62.2416 179.174 63.3916 179.724 63.9916C180.274 64.5916 181.074 64.7666 182.124 64.5166C183.179 64.2666 184.318 63.7062 185.541 62.8333C186.768 61.9562 187.895 60.8791 188.924 59.5999C189.951 58.3229 190.716 56.9833 191.216 55.5833ZM170.183 56.4083L173.791 37.7833C172.641 35.6791 171.287 34.5395 169.733 34.3666C168.183 34.1895 166.604 34.7541 164.999 36.0583C163.399 37.3583 161.945 39.1979 160.641 41.5749C159.341 43.9541 158.366 46.6708 157.716 49.7249C157.016 53.1312 156.776 56.0374 156.999 58.4416C157.226 60.8416 157.891 62.4916 158.991 63.3916C160.095 64.2916 161.587 64.2312 163.466 63.2083C165.343 62.1812 167.583 59.9145 170.183 56.4083Z" fill="white"/>
</svg>
